<?xml version="1.0" standalone="no"?>
<!DOCTYPE svg PUBLIC "-//W3C//DTD SVG 20010904//EN"
 "http://www.w3.org/TR/2001/REC-SVG-20010904/DTD/svg10.dtd">
<svg version="1.0" xmlns="http://www.w3.org/2000/svg"
 width="1024.000000pt" height="1024.000000pt" viewBox="0 0 1024.000000 1024.000000"
 preserveAspectRatio="xMidYMid meet">

<g transform="translate(0.000000,1024.000000) scale(0.100000,-0.100000)"
fill="#000000" stroke="none">
<path d="M4785 10229 c-1013 -72 -1934 -415 -2739 -1019 -1065 -798 -1762
-1953 -1981 -3280 -46 -283 -59 -462 -60 -810 0 -395 21 -624 86 -960 186
-958 608 -1793 1270 -2517 657 -716 1535 -1238 2494 -1483 1399 -356 2883
-108 4085 685 485 320 936 745 1283 1210 351 470 628 1014 790 1550 316 1045
303 2102 -37 3130 -397 1198 -1196 2176 -2306 2825 -599 350 -1314 579 -2045
655 -181 19 -660 27 -840 14z m747 -1085 c86 -8 212 -26 280 -38 280 -54 348
-69 348 -76 0 -5 9 -6 20 -3 12 3 20 0 20 -7 0 -7 7 -10 15 -7 8 4 17 2 20 -4
4 -5 10 -7 14 -4 14 8 151 -37 144 -48 -3 -5 3 -6 17 -2 14 4 20 3 16 -3 -6
-10 23 -26 32 -17 3 3 -1 5 -8 5 -7 0 -11 2 -8 5 9 10 38 -7 31 -18 -4 -7 0
-8 11 -4 10 4 49 -4 90 -19 92 -33 258 -105 253 -110 -2 -3 -30 7 -62 21 -114
51 -60 18 112 -68 97 -48 170 -81 164 -73 -6 7 -45 31 -86 52 -41 21 -73 40
-71 42 8 8 371 -190 399 -217 5 -5 -7 -4 -26 2 -20 6 -33 16 -30 21 3 5 1 6
-4 3 -6 -4 -21 2 -34 12 -26 20 -129 74 -129 67 0 -2 26 -19 58 -36 60 -34
264 -167 367 -239 33 -24 49 -33 35 -21 -14 12 -33 31 -43 43 -10 12 -15 16
-11 8 5 -9 3 -12 -5 -7 -6 4 -9 12 -6 17 6 9 -9 14 -30 9 -5 -1 -7 2 -3 5 4 4
-3 16 -15 27 -31 27 -4 12 73 -41 83 -58 301 -232 320 -257 8 -10 -8 0 -36 23
-28 24 -54 39 -58 35 -4 -4 -6 0 -4 8 2 8 -4 15 -12 15 -16 0 -65 34 -68 48
-1 4 -3 6 -5 5 -2 -2 -16 5 -32 16 -37 23 -20 6 65 -64 36 -30 89 -76 118
-103 32 -29 57 -45 65 -41 6 4 9 4 5 -1 -4 -4 64 -81 151 -170 86 -90 206
-223 265 -296 59 -74 112 -133 118 -131 5 1 7 -2 4 -7 -4 -5 42 -83 100 -173
110 -168 138 -206 110 -151 -9 18 -12 33 -6 35 6 2 1 20 -10 41 -11 20 -18 37
-16 37 6 0 120 -187 140 -230 l17 -35 -20 25 c-18 22 -21 23 -21 6 0 -20 0
-20 -15 0 -9 10 20 -53 63 -141 217 -439 350 -878 409 -1355 14 -114 18 -216
18 -477 0 -201 3 -329 9 -326 5 4 6 1 2 -6 -4 -6 -11 -9 -15 -6 -5 2 -11 -28
-15 -68 -15 -164 -68 -426 -128 -636 -16 -57 -27 -110 -24 -118 3 -8 2 -12 -2
-9 -4 2 -21 -32 -36 -77 -179 -513 -442 -965 -804 -1381 -115 -132 -365 -371
-504 -482 -68 -55 -123 -103 -123 -109 0 -13 11 -9 54 22 21 16 28 19 16 6
-11 -11 -45 -37 -75 -57 -34 -23 -44 -28 -28 -13 49 46 11 39 -57 -10 -62 -44
-78 -63 -54 -63 5 0 7 5 4 10 -4 6 -3 10 2 9 20 -3 34 2 28 11 -3 5 -4 10 -1
10 3 0 7 -4 10 -9 3 -5 -12 -20 -32 -34 -27 -17 -39 -21 -39 -11 0 7 5 10 10
7 6 -3 7 -1 3 6 -5 8 -20 2 -49 -17 -140 -96 -400 -237 -582 -316 -171 -75
-177 -77 -145 -71 19 4 16 1 -9 -11 -18 -8 -40 -13 -48 -10 -9 4 -11 2 -7 -6
5 -7 0 -9 -14 -6 -14 4 -20 2 -15 -5 4 -6 -2 -8 -15 -5 -14 4 -20 2 -16 -4 4
-6 -2 -8 -16 -3 -16 5 -20 4 -15 -5 5 -9 1 -10 -15 -5 -16 5 -20 4 -15 -5 5
-9 1 -10 -15 -5 -15 5 -20 4 -16 -4 4 -6 0 -12 -11 -13 -33 -2 -38 -3 -50 -11
-7 -5 -17 -5 -23 -2 -5 3 -10 1 -10 -5 0 -7 -7 -10 -15 -7 -8 4 -17 2 -20 -3
-3 -5 -12 -7 -20 -3 -8 3 -15 0 -15 -7 0 -7 -6 -10 -14 -7 -7 3 -17 2 -22 -3
-27 -25 -471 -103 -686 -120 -190 -16 -709 -7 -863 14 -374 51 -685 131 -1005
258 -1212 482 -2144 1552 -2450 2813 -159 654 -154 1306 15 1950 110 420 306
850 559 1230 380 572 911 1046 1521 1361 704 364 1467 506 2287 428z m1783
-613 c3 -5 2 -12 -3 -15 -5 -3 -9 1 -9 9 0 17 3 19 12 6z m61 -42 c3 -6 -5 -3
-20 6 -14 10 -26 19 -26 22 0 7 39 -17 46 -28z m504 -396 c30 -32 45 -49 33
-39 -13 11 -23 16 -23 12 0 -4 -9 -2 -21 4 -11 6 -18 17 -16 23 3 7 -5 22 -16
35 -43 47 -9 19 43 -35z m202 -197 c67 -73 75 -85 30 -41 -34 33 -62 55 -62
49 0 -5 6 -17 12 -24 7 -8 -11 7 -39 34 -29 28 -50 52 -48 55 3 2 15 -4 27
-15 20 -17 20 -16 -2 13 -24 30 -50 47 -34 21 4 -7 3 -8 -4 -4 -6 4 -9 13 -5
22 7 19 12 15 125 -110z m222 -255 c103 -129 171 -221 162 -221 -3 0 -24 25
-47 56 -25 35 -44 52 -48 45 -10 -16 -76 79 -73 104 2 14 0 16 -6 7 -7 -10
-11 -10 -22 3 -8 10 -9 15 -2 15 6 0 9 7 5 16 -3 8 -12 13 -20 10 -8 -3 -12
-2 -8 3 3 5 -14 33 -37 63 -23 29 -32 44 -19 34 12 -11 63 -72 115 -135z m191
-257 c9 -15 12 -23 6 -20 -11 7 -35 46 -28 46 3 0 12 -12 22 -26z m372 -681
c-5 -4 -67 133 -66 145 0 4 16 -26 35 -67 19 -41 33 -76 31 -78z m32 -68 c0
-5 -6 1 -14 15 -8 14 -14 30 -14 35 0 6 6 -1 14 -15 8 -14 14 -29 14 -35z
m111 -301 c18 -52 30 -97 28 -100 -3 -2 -11 14 -18 36 -12 38 -30 54 -30 28 0
-6 -2 -9 -5 -6 -3 3 -1 16 3 29 6 16 5 37 -4 63 -15 42 -16 46 -10 46 2 0 19
-43 36 -96z m87 -326 c-3 -8 -6 -5 -6 6 -1 11 2 17 5 13 3 -3 4 -12 1 -19z
m10 -40 c-3 -8 -6 -5 -6 6 -1 11 2 17 5 13 3 -3 4 -12 1 -19z m20 -100 c-3 -7
-5 -2 -5 12 0 14 2 19 5 13 2 -7 2 -19 0 -25z m21 -113 c-1 -31 -16 35 -16 70
0 25 2 24 9 -10 4 -22 8 -49 7 -60z m9 -72 c-3 -10 -5 -2 -5 17 0 19 2 27 5
18 2 -10 2 -26 0 -35z m10 -65 c-3 -7 -5 -2 -5 12 0 14 2 19 5 13 2 -7 2 -19
0 -25z m10 -85 c-3 -10 -5 -2 -5 17 0 19 2 27 5 18 2 -10 2 -26 0 -35z m10
-80 c-3 -10 -5 -4 -5 12 0 17 2 24 5 18 2 -7 2 -21 0 -30z m10 -265 c-2 -35
-3 -9 -3 57 0 66 1 94 3 63 2 -32 2 -86 0 -120z m0 -135 c-2 -16 -4 -5 -4 22
0 28 2 40 4 28 2 -13 2 -35 0 -50z m0 -155 c-2 -24 -4 -5 -4 42 0 47 2 66 4
43 2 -24 2 -62 0 -85z m-10 -135 c-2 -16 -4 -5 -4 22 0 28 2 40 4 28 2 -13 2
-35 0 -50z m-10 -85 c-2 -13 -4 -5 -4 17 -1 22 1 32 4 23 2 -10 2 -28 0 -40z
m-10 -90 c-3 -7 -5 -2 -5 12 0 14 2 19 5 13 2 -7 2 -19 0 -25z m-10 -65 c-3
-10 -5 -2 -5 17 0 19 2 27 5 18 2 -10 2 -26 0 -35z m-12 -88 c-4 -25 -10 -44
-12 -41 -3 3 -2 26 2 51 3 26 9 45 12 42 2 -3 1 -26 -2 -52z m-18 -87 c-3 -7
-5 -2 -5 12 0 14 2 19 5 13 2 -7 2 -19 0 -25z m-10 -50 c-3 -8 -6 -5 -6 6 -1
11 2 17 5 13 3 -3 4 -12 1 -19z m-40 -170 c-3 -8 -6 -5 -6 6 -1 11 2 17 5 13
3 -3 4 -12 1 -19z m-40 -140 c-3 -8 -6 -5 -6 6 -1 11 2 17 5 13 3 -3 4 -12 1
-19z m-26 -79 c-5 -13 -10 -19 -10 -12 -1 15 10 45 15 40 3 -2 0 -15 -5 -28z
m-21 -74 c-16 -47 -23 -40 -8 8 6 20 13 35 16 33 2 -3 -1 -21 -8 -41z m-69
-182 c-12 -20 -14 -14 -5 12 4 9 9 14 11 11 3 -2 0 -13 -6 -23z m-20 -50 c-12
-20 -14 -14 -5 12 4 9 9 14 11 11 3 -2 0 -13 -6 -23z m-81 -186 c-40 -87 -63
-121 -33 -49 29 71 65 143 69 139 2 -2 -14 -43 -36 -90z m-110 -217 c-6 -11
-13 -20 -16 -20 -2 0 0 9 6 20 6 11 13 20 16 20 2 0 0 -9 -6 -20z m-56 -97
c-45 -79 -126 -203 -131 -203 -3 0 5 15 16 33 12 17 47 74 78 125 57 94 87
130 37 45z m-150 -238 c-9 -14 -18 -25 -21 -25 -5 0 5 18 20 38 17 22 18 13 1
-13z m-104 -149 c0 -2 -8 -10 -17 -17 -16 -13 -17 -12 -4 4 13 16 21 21 21 13z
m-66 -81 c-20 -25 -39 -45 -42 -45 -5 0 8 17 52 68 35 40 28 23 -10 -23z m-44
-58 c0 -2 -10 -12 -22 -23 l-23 -19 19 23 c18 21 26 27 26 19z m-50 -60 c0 -2
-15 -16 -32 -33 l-33 -29 29 33 c28 30 36 37 36 29z m-70 -80 c0 -2 -19 -21
-42 -42 l-43 -40 40 43 c36 39 45 47 45 39z m-250 -250 c0 -2 -17 -19 -37 -38
l-38 -34 34 38 c33 34 41 42 41 34z m-114 -106 c-4 -5 -30 -28 -59 -51 l-52
-42 55 51 c54 50 66 60 56 42z m-116 -94 c0 -2 -10 -12 -22 -23 l-23 -19 19
23 c18 21 26 27 26 19z m-50 -40 c0 -2 -10 -12 -22 -23 l-23 -19 19 23 c18 21
26 27 26 19z m-420 -292 c0 -2 -10 -9 -22 -15 -22 -11 -22 -10 -4 4 21 17 26
19 26 11z m-50 -30 c0 -2 -10 -9 -22 -15 -22 -11 -22 -10 -4 4 21 17 26 19 26
11z m-70 -40 c0 -2 -13 -11 -30 -20 -38 -19 -40 -11 -2 9 31 17 32 18 32 11z
m-265 -135 c-55 -27 -104 -49 -110 -49 -13 0 187 97 200 97 6 0 -35 -22 -90
-48z m-155 -70 c-8 -5 -19 -10 -25 -10 -5 0 -3 5 5 10 8 5 20 10 25 10 6 0 3
-5 -5 -10z m-50 -20 c-8 -5 -19 -10 -25 -10 -5 0 -3 5 5 10 8 5 20 10 25 10 6
0 3 -5 -5 -10z"/>
<path d="M4915 8944 c-142 -11 -290 -27 -370 -40 -148 -24 -389 -76 -402 -86
-7 -5 -17 -7 -22 -4 -5 4 -12 2 -16 -3 -3 -6 -12 -8 -20 -4 -8 3 -15 1 -15 -4
0 -12 -77 -36 -90 -28 -6 3 -10 2 -10 -4 0 -6 -7 -8 -15 -5 -8 4 -15 1 -15 -5
0 -6 -7 -8 -15 -5 -8 4 -15 1 -15 -5 0 -6 -7 -8 -17 -4 -11 5 -14 3 -8 -6 6
-10 2 -11 -15 -6 -16 5 -20 4 -15 -5 5 -9 1 -10 -15 -5 -14 4 -20 3 -16 -3 6
-10 -23 -26 -32 -17 -3 3 1 5 8 5 7 0 11 2 8 5 -8 8 -39 -6 -33 -15 7 -12 -32
-23 -46 -14 -7 4 -9 3 -5 -4 8 -13 -29 -26 -45 -16 -7 4 -9 3 -6 -3 9 -14 -48
-37 -65 -27 -7 4 -10 3 -5 -1 4 -5 -68 -47 -160 -95 -93 -47 -224 -120 -293
-163 -69 -42 -115 -69 -102 -58 12 11 19 22 14 24 -15 10 -312 -206 -311 -225
0 -10 2 -10 6 0 2 6 10 9 15 6 7 -4 8 -2 4 4 -8 13 28 35 39 24 5 -4 5 -1 1 6
-4 7 -2 12 5 12 7 0 40 18 74 41 33 22 47 30 31 17 -16 -13 -86 -68 -155 -123
-69 -54 -211 -184 -316 -288 -183 -182 -215 -209 -72 -61 37 39 67 77 65 85
-2 8 3 13 11 11 7 -2 50 32 95 75 44 43 100 94 123 114 23 20 39 39 35 43 -4
4 -1 6 7 4 7 -1 15 5 16 14 3 15 -1 14 -26 -4 -15 -12 -25 -26 -22 -31 3 -6 2
-7 -4 -4 -18 11 -266 -219 -256 -237 3 -6 2 -8 -2 -3 -11 10 -66 -43 -58 -56
3 -6 1 -7 -5 -3 -6 3 -45 -32 -89 -81 -122 -138 -155 -181 -147 -194 4 -7 3
-9 -4 -5 -13 8 -76 -70 -67 -84 4 -6 1 -9 -5 -8 -15 4 -170 -220 -254 -367
-251 -437 -414 -913 -480 -1401 -30 -215 -48 -664 -27 -664 3 0 5 -31 3 -68
-4 -83 27 -339 64 -517 33 -165 111 -437 167 -585 79 -208 184 -433 198 -424
5 3 7 -1 4 -8 -7 -18 120 -234 135 -230 6 1 9 -2 5 -8 -7 -11 14 -55 22 -46 3
3 0 13 -7 21 -7 9 -9 15 -4 14 22 -4 23 3 7 29 -12 20 -13 23 -1 12 26 -26
122 -186 99 -166 -22 20 -22 20 -15 0 7 -18 7 -18 -16 1 -59 51 97 -162 245
-335 143 -168 330 -354 344 -345 9 5 -5 26 -50 73 -39 40 -20 25 49 -38 111
-103 155 -149 66 -71 -66 58 -79 38 -14 -21 150 -139 404 -326 416 -307 5 8 3
9 -6 4 -9 -5 -11 -4 -6 3 4 7 2 13 -3 13 -6 1 -16 2 -23 3 -6 0 -12 8 -13 16
-2 9 48 -18 124 -68 69 -46 128 -86 131 -88 9 -10 -36 9 -50 21 -8 7 -46 29
-85 49 -38 20 -59 28 -46 18 67 -53 456 -270 467 -260 2 3 -19 15 -46 28 -28
13 -56 30 -62 38 -7 8 36 -10 95 -39 58 -29 105 -55 103 -57 -2 -2 -18 4 -36
13 -18 9 -34 15 -36 12 -8 -8 158 -78 173 -73 8 3 12 2 9 -3 -6 -9 104 -55
112 -46 3 3 -1 5 -8 5 -7 0 -11 2 -8 5 9 9 68 -17 62 -27 -4 -6 2 -8 16 -3 16
5 20 4 15 -5 -5 -9 -1 -10 15 -5 17 5 21 4 15 -6 -6 -9 -4 -11 8 -6 9 3 17 1
19 -5 2 -6 18 -11 36 -11 18 0 32 -4 32 -8 0 -5 7 -6 15 -3 8 4 15 1 15 -5 0
-6 7 -8 15 -5 8 4 15 2 15 -3 0 -6 26 -15 58 -22 31 -7 66 -15 77 -17 11 -2
72 -15 135 -29 566 -122 1137 -111 1676 30 140 37 368 112 499 164 93 38 338
159 457 228 495 282 988 749 1304 1233 321 493 518 1031 601 1640 26 193 26
707 0 900 -110 815 -438 1526 -985 2134 -600 668 -1471 1117 -2367 1221 -134
16 -504 27 -610 19z m390 -922 c83 -31 190 -106 242 -172 101 -128 128 -229
143 -550 15 -324 21 -288 -58 -335 -81 -49 -87 -51 -77 -35 5 9 4 11 -4 6 -6
-4 -9 -11 -6 -16 3 -4 -20 -30 -50 -57 -60 -54 -126 -137 -145 -183 l-12 -29
-75 79 c-175 186 -432 298 -790 345 -160 21 -420 29 -583 17 -74 -5 -136 -8
-138 -7 -4 4 126 43 216 65 141 35 276 59 395 71 108 12 117 14 117 33 1 120
24 327 43 394 62 212 226 355 457 396 14 2 79 3 145 2 93 -2 134 -8 180 -24z
m-2895 -216 c0 -2 -8 -10 -17 -17 -16 -13 -17 -12 -4 4 13 16 21 21 21 13z
m-150 -199 c0 -2 -12 -14 -27 -28 l-28 -24 24 28 c23 25 31 32 31 24z m-60
-71 c0 -2 -8 -10 -17 -17 -16 -13 -17 -12 -4 4 13 16 21 21 21 13z m-88 -113
c-32 -43 -87 -121 -122 -173 -58 -88 -105 -150 -67 -88 9 15 25 40 35 56 9 16
41 64 70 108 31 45 49 80 43 82 -9 3 -9 8 0 18 6 8 16 11 22 7 6 -4 8 0 4 9
-7 19 10 38 28 32 6 -3 18 2 25 11 7 8 14 15 17 15 2 0 -23 -35 -55 -77z
m-232 -343 c-6 -11 -13 -20 -16 -20 -2 0 0 9 6 20 6 11 13 20 16 20 2 0 0 -9
-6 -20z m-82 -147 c-28 -54 -55 -102 -61 -108 -11 -12 69 149 90 182 32 49 21
19 -29 -74z m2563 -23 c121 -12 222 -32 332 -67 42 -13 82 -21 89 -17 7 5 8 3
3 -6 -6 -9 -2 -10 15 -5 13 4 20 3 17 -2 -4 -6 17 -21 45 -34 131 -61 267
-183 321 -288 59 -113 71 -163 72 -291 0 -213 -64 -369 -213 -523 -114 -117
-259 -206 -419 -257 l-71 -23 62 -21 c90 -31 170 -82 238 -155 53 -56 61 -62
76 -49 9 8 53 29 97 47 306 129 561 330 651 516 41 84 176 473 210 604 38 148
30 241 -22 241 -19 0 -87 -35 -143 -73 -34 -23 -55 -30 -96 -31 -84 -1 -125
33 -125 103 0 94 207 265 385 317 73 21 251 25 312 6 145 -44 218 -197 192
-404 -22 -179 -65 -320 -264 -868 -208 -571 -277 -794 -305 -988 -37 -250 33
-379 200 -370 225 13 484 315 766 893 162 333 296 692 476 1275 55 179 108
339 119 357 28 45 81 89 126 104 21 7 79 13 128 13 138 1 185 -37 185 -151 0
-99 -47 -268 -246 -893 -221 -692 -281 -892 -333 -1111 -76 -320 -80 -461 -16
-503 71 -47 173 4 352 176 l102 98 55 0 c49 0 58 -3 72 -26 24 -35 22 -129 -3
-185 -27 -61 -132 -189 -209 -254 -78 -66 -180 -128 -260 -157 -80 -30 -287
-38 -366 -14 -100 29 -196 128 -229 236 -16 52 -23 268 -10 316 6 23 22 53 36
68 22 23 56 120 55 157 0 8 -20 -22 -43 -66 -83 -158 -232 -367 -333 -469
-119 -120 -262 -209 -389 -241 -79 -20 -281 -20 -360 0 -179 47 -311 187 -351
373 -20 97 -18 268 6 400 23 125 101 408 129 465 l19 38 -62 -36 c-130 -76
-352 -179 -508 -236 -132 -49 -153 -59 -113 -55 28 3 80 8 118 12 l67 7 0 -52
c0 -85 -28 -189 -82 -300 -44 -91 -61 -116 -141 -196 -188 -190 -452 -318
-797 -389 -186 -38 -318 -49 -593 -50 l-247 -1 -11 -40 c-18 -67 -55 -114
-112 -141 -43 -20 -68 -24 -147 -24 -110 0 -151 15 -188 70 -23 33 -24 41 -19
155 13 284 139 939 272 1405 56 195 142 460 208 639 53 145 66 170 106 211 64
66 133 90 257 90 67 0 104 -5 127 -16 85 -43 87 -96 13 -297 -78 -208 -197
-574 -250 -767 -86 -315 -208 -891 -192 -908 3 -3 30 -7 60 -10 l53 -4 6 42
c10 76 65 168 152 255 170 171 380 278 842 430 62 20 116 41 119 47 10 16 -80
92 -154 131 -100 52 -162 67 -315 76 -114 6 -143 11 -165 28 -81 59 -83 204
-4 286 45 48 77 58 206 67 180 14 274 36 418 98 125 55 252 162 297 250 81
159 59 316 -58 425 -138 128 -363 186 -671 174 -284 -12 -562 -70 -821 -172
-125 -49 -323 -157 -412 -224 -139 -104 -140 -105 -227 -104 -94 0 -123 15
-151 76 -43 95 -20 177 75 273 88 87 192 156 361 238 321 156 652 240 1100
279 92 8 350 6 446 -3z m499 -110 c8 -5 11 -10 5 -10 -5 0 -17 5 -25 10 -8 5
-10 10 -5 10 6 0 17 -5 25 -10z m60 -25 c14 -8 21 -14 15 -14 -5 0 -21 6 -35
14 -14 8 -20 14 -15 14 6 0 21 -6 35 -14z m-3274 -152 c-8 -15 -15 -25 -16
-21 0 12 23 58 27 54 3 -2 -2 -17 -11 -33z m3500 -5 l29 -33 -32 29 c-31 28
-38 36 -30 36 2 0 16 -15 33 -32z m-3525 -55 c-12 -20 -14 -14 -5 12 4 9 9 14
11 11 3 -2 0 -13 -6 -23z m3570 0 c13 -16 12 -17 -3 -4 -10 7 -18 15 -18 17 0
8 8 3 21 -13z m-3610 -100 c-12 -20 -14 -14 -5 12 4 9 9 14 11 11 3 -2 0 -13
-6 -23z m4050 -63 c82 0 89 -2 89 -20 0 -33 -119 -386 -173 -514 -47 -112 -55
-124 -131 -198 -82 -82 -200 -166 -296 -212 l-55 -27 40 32 c182 147 307 344
352 554 15 70 13 281 -3 364 l-7 34 48 -6 c26 -4 88 -7 136 -7z m-334 -92 c-3
-7 -5 -2 -5 12 0 14 2 19 5 13 2 -7 2 -19 0 -25z m-3826 -184 c-11 -38 -20
-63 -20 -55 -1 20 31 133 36 128 2 -3 -5 -35 -16 -73z m-54 -216 c-3 -8 -6 -5
-6 6 -1 11 2 17 5 13 3 -3 4 -12 1 -19z m-10 -50 c-3 -8 -6 -5 -6 6 -1 11 2
17 5 13 3 -3 4 -12 1 -19z m-20 -110 c-3 -8 -6 -5 -6 6 -1 11 2 17 5 13 3 -3
4 -12 1 -19z m-20 -140 c-3 -8 -6 -5 -6 6 -1 11 2 17 5 13 3 -3 4 -12 1 -19z
m-10 -85 c-3 -10 -5 -2 -5 17 0 19 2 27 5 18 2 -10 2 -26 0 -35z m-13 -150
c-4 -71 -10 -137 -14 -148 -7 -20 -5 58 6 203 9 120 15 81 8 -55z m-39 -113
c3 -5 1 -10 -4 -10 -6 0 -11 5 -11 10 0 6 2 10 4 10 3 0 8 -4 11 -10z m5 -45
c0 -14 -4 -25 -10 -25 -5 0 -9 11 -8 25 1 14 6 25 10 25 4 0 8 -11 8 -25z m20
-121 c0 -61 -4 -93 -10 -89 -5 3 -10 1 -10 -4 0 -6 7 -11 15 -11 12 0 15 -15
13 -82 -1 -46 -3 -65 -5 -43 -3 22 -10 43 -16 47 -9 6 -9 8 1 8 7 0 12 13 12
30 0 24 -4 30 -17 28 -16 -3 -18 8 -20 102 -1 72 2 99 8 87 6 -10 8 -26 4 -36
-3 -11 -1 -22 5 -26 6 -4 10 10 10 39 0 25 2 46 5 46 3 0 5 -43 5 -96z m17
-336 c-2 -13 -4 -3 -4 22 0 25 2 35 4 23 2 -13 2 -33 0 -45z m10 -85 c-3 -10
-5 -2 -5 17 0 19 2 27 5 18 2 -10 2 -26 0 -35z m10 -80 c-3 -10 -5 -4 -5 12 0
17 2 24 5 18 2 -7 2 -21 0 -30z m10 -65 c-3 -7 -5 -2 -5 12 0 14 2 19 5 13 2
-7 2 -19 0 -25z m10 -50 c-3 -8 -6 -5 -6 6 -1 11 2 17 5 13 3 -3 4 -12 1 -19z
m3803 -293 c84 -268 285 -440 559 -477 l91 -12 16 -51 c24 -74 60 -159 111
-262 l46 -93 -60 -77 c-239 -313 -492 -770 -637 -1150 -33 -87 -46 -137 -46
-173 0 -28 -7 -67 -15 -88 -16 -38 -52 -82 -67 -82 -4 0 -8 328 -8 729 l0 729
29 12 c92 38 137 167 92 265 -89 193 -381 124 -381 -90 0 -52 46 -131 95 -162
l44 -28 1 -734 c0 -628 -2 -732 -14 -722 -11 9 -15 9 -18 0 -6 -18 -62 15 -89
52 -16 23 -24 53 -29 108 -9 87 -36 166 -126 368 -156 349 -339 664 -534 919
-42 55 -79 105 -83 111 -4 6 21 68 54 137 55 116 149 375 149 411 0 9 8 18 18
22 9 3 68 28 131 56 269 120 501 325 605 535 l31 64 7 -124 c4 -83 13 -146 28
-193z m-3793 233 c-3 -8 -6 -5 -6 6 -1 11 2 17 5 13 3 -3 4 -12 1 -19z m10
-60 c-3 -7 -5 -2 -5 12 0 14 2 19 5 13 2 -7 2 -19 0 -25z m10 -40 c-3 -8 -6
-5 -6 6 -1 11 2 17 5 13 3 -3 4 -12 1 -19z m10 -50 c-3 -8 -6 -5 -6 6 -1 11 2
17 5 13 3 -3 4 -12 1 -19z m32 -118 c0 -9 -4 -8 -9 5 -5 11 -9 27 -9 35 0 9 4
8 9 -5 5 -11 9 -27 9 -35z m8 -42 c-3 -8 -6 -5 -6 6 -1 11 2 17 5 13 3 -3 4
-12 1 -19z m22 -65 c1 -7 -2 -13 -6 -13 -5 0 -9 15 -10 33 -1 26 0 28 7 12 5
-11 9 -26 9 -32z m111 -318 c0 -5 -5 -3 -10 5 -5 8 -10 20 -10 25 0 6 5 3 10
-5 5 -8 10 -19 10 -25z m20 -50 c0 -5 -5 -3 -10 5 -5 8 -10 20 -10 25 0 6 5 3
10 -5 5 -8 10 -19 10 -25z m29 -70 c0 -5 -6 1 -14 15 -8 14 -14 30 -14 35 0 6
6 -1 14 -15 8 -14 14 -29 14 -35z m116 -237 c25 -49 43 -88 41 -88 -10 0 -106
179 -106 198 0 11 18 -18 65 -110z m396 -615 c29 -38 41 -58 27 -45 -26 24
-93 112 -85 112 3 0 29 -30 58 -67z m194 -231 c-2 -2 -18 9 -35 25 -18 15 -36
27 -41 26 -5 -2 -13 7 -20 18 -8 15 -8 19 0 15 18 -12 12 6 -11 34 -13 14 7
-6 43 -45 37 -38 66 -71 64 -73z m415 -389 c0 -7 -78 56 -87 70 -4 6 14 -6 40
-27 26 -21 47 -40 47 -43z m41 -30 c13 -16 12 -17 -3 -4 -10 7 -18 15 -18 17
0 8 8 3 21 -13z"/>
<path d="M5553 7220 c0 -36 2 -50 4 -32 2 17 2 47 0 65 -2 17 -4 3 -4 -33z"/>
<path d="M2105 7460 c-3 -5 -1 -10 4 -10 6 0 11 5 11 10 0 6 -2 10 -4 10 -3 0
-8 -4 -11 -10z"/>
<path d="M4355 4720 c-297 -102 -474 -194 -599 -310 -45 -41 -106 -123 -106
-142 0 -4 22 -8 49 -8 135 0 411 78 536 152 129 77 226 199 250 316 8 40 9 40
-130 -8z"/>
<path d="M1306 5082 c-2 -4 -1 -14 5 -22 7 -12 9 -10 9 8 0 23 -5 28 -14 14z"/>
<path d="M6510 8910 c8 -5 20 -10 25 -10 6 0 3 5 -5 10 -8 5 -19 10 -25 10 -5
0 -3 -5 5 -10z"/>
<path d="M6560 8890 c8 -5 20 -10 25 -10 6 0 3 5 -5 10 -8 5 -19 10 -25 10 -5
0 -3 -5 5 -10z"/>
<path d="M6639 8859 c24 -11 46 -18 48 -15 4 4 -73 36 -85 35 -4 0 13 -9 37
-20z"/>
<path d="M3550 8615 c-14 -8 -20 -14 -15 -14 6 0 21 6 35 14 14 8 21 14 15 14
-5 0 -21 -6 -35 -14z"/>
<path d="M3470 8581 c-8 -4 -73 -38 -143 -75 -71 -38 -126 -70 -124 -72 4 -5
204 97 272 138 29 17 25 26 -5 9z"/>
<path d="M3103 8378 c-18 -11 -33 -25 -32 -31 0 -8 2 -8 6 1 2 6 9 10 14 6 5
-3 9 0 9 6 0 6 4 9 9 6 5 -3 12 1 15 10 3 8 11 12 17 8 8 -4 9 -3 5 4 -4 7 -8
12 -9 11 -1 0 -17 -10 -34 -21z"/>
<path d="M7650 8276 c0 -2 8 -10 18 -17 15 -13 16 -12 3 4 -13 16 -21 21 -21
13z"/>
<path d="M1905 3036 c10 -14 19 -26 22 -26 7 0 -17 39 -28 46 -6 3 -3 -5 6
-20z"/>
<path d="M1930 3044 c0 -13 18 -39 24 -34 2 3 -2 14 -10 24 -8 11 -14 16 -14
10z"/>
<path d="M7860 8096 c0 -2 8 -10 18 -17 15 -13 16 -12 3 4 -13 16 -21 21 -21
13z"/>
</g>
</svg>
